HIERARCHY
ROOT Hips
{
  OFFSET 0 89.5177 0.535
  CHANNELS 6 Xposition Yposition Zposition Zrotation Xrotation Yrotation
  JOINT Spine
  {
    OFFSET 12.0259 -0.162855 1.69034e-005
    CHANNELS 3 Zrotation Xrotation Yrotation
    JOINT Spine1
    {
      OFFSET 15.3169 -0.0121922 0
      CHANNELS 3 Zrotation Xrotation Yrotation
      JOINT Spine2
      {
        OFFSET 15.3176 -0.0121908 0
        CHANNELS 3 Zrotation Xrotation Yrotation
        JOINT Neck
        {
          OFFSET 19.9142 1.56338 0
          CHANNELS 3 Zrotation Xrotation Yrotation
          JOINT Head
          {
            OFFSET 6.92651 0 0
            CHANNELS 3 Zrotation Xrotation Yrotation
            End Site
            {
              OFFSET 20.7666 0 0
            }
          }
          JOINT LeftShoulder
          {
            OFFSET -6.20654 0.708824 7.28219
            CHANNELS 3 Zrotation Xrotation Yrotation
            JOINT LeftArm
            {
              OFFSET 14.108 0 -1.52588e-005
              CHANNELS 3 Zrotation Xrotation Yrotation
              JOINT LeftForeArm
              {
                OFFSET 28.5802 0 0
                CHANNELS 3 Zrotation Xrotation Yrotation
                JOINT LeftHand
                {
                  OFFSET 27.092 0 0
                  CHANNELS 3 Zrotation Xrotation Yrotation
                  End Site
                  {
                    OFFSET 9.55928 -0.186424 0.145352
                  }
                }
              }
            }
          }
          JOINT RightShoulder
          {
            OFFSET -6.20654 0.708866 -7.28218
            CHANNELS 3 Zrotation Xrotation Yrotation
            JOINT RightArm
            {
              OFFSET 14.108 0 1.52588e-005
              CHANNELS 3 Zrotation Xrotation Yrotation
              JOINT RightForeArm
              {
                OFFSET 28.5802 0 0
                CHANNELS 3 Zrotation Xrotation Yrotation
                JOINT RightHand
                {
                  OFFSET 27.092 0 0
                  CHANNELS 3 Zrotation Xrotation Yrotation
                  End Site
                  {
                    OFFSET 9.55929 -0.186417 -0.145354
                  }
                }
              }
            }
          }
        }
      }
    }
  }
  JOINT LeftUpLeg
  {
    OFFSET 0.005 -0.535 8.837
    CHANNELS 3 Zrotation Xrotation Yrotation
    JOINT LeftLeg
    {
      OFFSET 39.9035 0 0
      CHANNELS 3 Zrotation Xrotation Yrotation
      JOINT LeftFoot
      {
        OFFSET 39.6689 0 0
        CHANNELS 3 Zrotation Xrotation Yrotation
        JOINT LeftToe
        {
          OFFSET 10.1624 13.6296 0
          CHANNELS 3 Zrotation Xrotation Yrotation
          End Site
          {
            OFFSET 8.38147 0 0
          }
        }
      }
    }
  }
  JOINT RightUpLeg
  {
    OFFSET 0.005 -0.535 -8.837
    CHANNELS 3 Zrotation Xrotation Yrotation
    JOINT RightLeg
    {
      OFFSET 39.9035 0 0
      CHANNELS 3 Zrotation Xrotation Yrotation
      JOINT RightFoot
      {
        OFFSET 39.6689 0 0
        CHANNELS 3 Zrotation Xrotation Yrotation
        JOINT RightToe
        {
          OFFSET 10.1624 13.6296 0
          CHANNELS 3 Zrotation Xrotation Yrotation
          End Site
          {
            OFFSET 8.38147 0 0
          }
        }
      }
    }
  }
}
MOTION
Frames:	12
Frame Time:	0.0333333
270.729 89.2546 -7.29821 -33.9484 -81.9111 -119.332 2.69215 -0.896961 -0.974839 5.3697 -1.83812 -1.90669 5.3697 -1.83812 -1.9067 -8.30828e-012 -9.0191e-006 -5.27751e-005 2.49431 -2.75577 7.14657 -178.048 -10.105 -79.0071 8.7984 -39.948 28.1636 -21.1331 3.18055e-015 3.18055e-015 -68.5838 -32.4827 -60.1312 -179.548 7.9644 86.7388 44.0924 58.5108 -59.6966 -8.31994 0 7.95139e-016 -54.8233 25.2587 44.8481 7.49561 4.06661 177.463 -12.1561 0 -1.05604e-016 10.9187 5.09363 -9.91303 90 4.22417e-016 7.95139e-016 8.23546 -8.14022 175.468 -11.3695 -1.59028e-015 -3.97569e-016 13.5407 -2.51832 0.450781 90 -3.57191e-017 -1.59028e-015 
270.782 89.2496 -7.34196 -34.9353 -81.9062 -120.339 2.68853 -0.886784 -0.989567 5.36237 -1.81841 -1.93667 5.36237 -1.81841 -1.93668 -8.30907e-012 -9.0191e-006 -5.27751e-005 2.53122 -2.7423 7.19518 -178.051 -10.0604 -78.9774 8.78375 -39.8454 27.9639 -21.0907 6.36111e-015 -1.59028e-015 -68.5782 -32.4718 -60.0957 -179.553 7.94738 86.7712 43.8956 58.4283 -59.5736 -8.41178 -3.18055e-015 -0 -54.9119 25.1944 44.8826 7.51513 4.21351 177.512 -12.0746 -4.96962e-017 -4.47266e-016 10.9369 5.10477 -9.96192 90 -3.2054e-015 -7.95139e-016 8.24111 -7.98804 175.531 -11.2877 -1.59028e-015 -0 13.5228 -2.47703 0.385288 90 -1.13369e-016 -0 
270.835 89.2374 -7.39353 -35.3831 -81.9785 -120.791 2.68189 -0.902318 -1.0101 5.34851 -1.8503 -1.97712 5.34851 -1.8503 -1.97713 -8.30669e-012 -9.0191e-006 -5.27751e-005 2.58476 -2.73082 7.21013 -178.045 -10.1309 -79.0184 8.72246 -39.7849 27.8049 -21.0436 9.54166e-015 4.77083e-015 -68.3329 -32.5846 -59.8221 -179.553 7.93888 86.7702 43.3646 58.3722 -59.1419 -8.41681 0 -0 -54.7479 25.268 44.7572 7.49565 4.2451 177.541 -12.0101 1.2424e-016 -3.47873e-016 10.9502 5.08424 -9.90523 90 5.2181e-016 -0 8.17655 -7.98882 175.576 -11.3126 -3.18056e-015 -3.97569e-016 13.5763 -2.46477 0.346865 90 1.30452e-016 1.59028e-015 
270.893 89.2354 -7.43817 -35.6255 -82.124 -121.059 2.65791 -0.912856 -1.02407 5.30014 -1.8716 -2.00496 5.30014 -1.8716 -2.00497 -8.3043e-012 -9.0191e-006 -5.27751e-005 2.65975 -2.81725 7.2516 -178.056 -10.1372 -79.0859 8.67838 -39.8166 27.617 -21.0117 3.18055e-015 -1.59028e-015 -68.3298 -32.4805 -59.7239 -179.556 7.97606 86.8058 43.3529 58.4375 -59.1079 -8.42522 -1.59028e-014 4.77083e-015 -54.7837 25.1334 44.6878 7.4186 4.07827 177.576 -11.9238 1.2424e-017 4.95409e-016 10.8874 4.98769 -9.65344 90 -2.5345e-015 -2.38542e-015 8.34984 -7.92501 175.707 -10.8227 0 -1.19271e-015 13.3824 -2.38195 0.134071 90 -2.32951e-017 3.18055e-015 
270.955 89.2368 -7.50905 -35.9183 -82.2782 -121.362 2.62429 -0.920556 -1.03584 5.23257 -1.88695 -2.0287 5.23257 -1.88695 -2.02871 -8.30669e-012 -9.0191e-006 -5.27751e-005 2.82485 -2.88902 7.18508 -178.056 -10.2014 -79.1494 8.58718 -39.9563 27.3882 -21.0181 0 -7.95139e-015 -68.2224 -32.4984 -59.5855 -179.565 8.00604 86.8788 43.4586 58.5508 -59.1465 -8.43907 0 7.95139e-016 -54.826 25.1296 44.7265 7.35289 4.00033 177.617 -11.8339 -1.33558e-016 -3.16813e-016 10.8602 4.95987 -9.60055 90 -1.26725e-015 -0 8.25202 -8.00479 175.764 -10.8194 1.59028e-015 -0 13.432 -2.39646 0.241264 90 -1.38217e-016 1.59028e-015 
271.005 89.2282 -7.57615 -36.6016 -82.414 -122.049 2.58405 -0.915276 -1.04896 5.15196 -1.87629 -2.05586 5.15196 -1.87629 -2.05587 -8.30669e-012 -9.0191e-006 -5.27751e-005 3.00889 -2.84267 7.12297 -178.041 -10.3373 -79.2059 8.34151 -40.1893 26.9763 -20.9491 6.36111e-015 1.59028e-015 -68.2008 -32.402 -59.4828 -179.575 8.06321 86.9695 43.4209 58.6302 -59.0346 -8.46527 3.18055e-015 -1.59028e-015 -54.8178 25.2196 44.798 7.26018 3.95864 177.645 -11.7887 -2.17421e-017 -2.0655e-016 10.852 4.90336 -9.46561 90 -1.2424e-016 -7.95139e-016 8.13159 -8.00522 175.786 -10.8615 1.59028e-015 1.19271e-015 13.5153 -2.45321 0.313643 90 -2.48481e-017 -0 
271.047 89.2131 -7.66243 -37.2095 -82.4371 -122.677 2.56748 -0.894483 -1.05867 5.11899 -1.83487 -2.07645 5.11899 -1.83487 -2.07646 -8.30828e-012 -9.0191e-006 -5.27751e-005 3.10989 -2.74798 7.0151 -178.039 -10.4491 -79.3097 8.24164 -40.571 26.6038 -20.9601 -3.18055e-015 4.77083e-015 -68.0034 -32.387 -59.1649 -179.587 8.09073 87.0661 43.5162 58.8033 -58.9734 -8.45898 0 2.38542e-015 -54.8703 25.1681 44.7876 7.25669 3.95005 177.67 -11.8048 1.2424e-017 -9.93923e-017 10.9068 4.85698 -9.34136 90 -1.83876e-015 -0 7.91676 -8.0858 175.775 -11.2386 -3.18056e-015 -1.19271e-015 13.7506 -2.52382 0.524586 90 -6.83322e-017 3.18055e-015 
271.091 89.2093 -7.7604 -37.5696 -82.4445 -123.055 2.56598 -0.886588 -1.06562 5.116 -1.81937 -2.09073 5.116 -1.81937 -2.09074 -8.30828e-012 -9.0191e-006 -5.27751e-005 3.03848 -2.5988 6.8746 -178.023 -10.6274 -79.399 8.14773 -40.9162 26.207 -21.1076 -3.18055e-015 1.59028e-015 -67.9349 -32.4653 -59.1401 -179.597 8.10622 87.1456 43.1893 58.8804 -58.5642 -8.51127 -3.18055e-015 -0 -54.955 25.1096 44.8042 7.31426 3.88398 177.685 -11.7596 -2.48481e-017 2.11209e-016 10.9099 4.80224 -9.20087 90 -5.46658e-016 7.95139e-016 8.13041 -8.01927 175.86 -10.901 1.59028e-015 3.97569e-016 13.6497 -2.46353 0.406246 90 -1.73937e-016 1.59028e-015 
271.113 89.2051 -7.85607 -37.9315 -82.4351 -123.422 2.57617 -0.877878 -1.07639 5.13636 -1.80262 -2.11247 5.13636 -1.80263 -2.11248 -8.30589e-012 -9.0191e-006 -5.27751e-005 2.85578 -2.44344 6.84275 -178.014 -10.8073 -79.5202 8.05654 -41.3006 25.7981 -21.1563 -3.18055e-015 1.59028e-015 -67.9122 -32.3638 -59.0228 -179.607 8.14763 87.2256 42.962 59.0025 -58.2872 -8.57961 -3.18055e-015 1.59028e-015 -54.9611 25.0913 44.7457 7.41866 3.79672 177.665 -11.634 -9.93923e-017 -2.48481e-016 10.8603 4.70907 -8.96839 90 -5.96354e-016 -7.95139e-016 8.5141 -7.88274 175.944 -10.2827 0 -3.97569e-016 13.4202 -2.37756 0.141938 90 -3.10601e-017 -1.59028e-015 
271.112 89.1924 -7.94773 -38.066 -82.5025 -123.538 2.57311 -0.881532 -1.08655 5.13019 -1.80371 -2.13282 5.13019 -1.80371 -2.13283 -8.30669e-012 -9.0191e-006 -5.27751e-005 2.75109 -2.3923 6.8238 -178.016 -10.9288 -79.6423 7.90874 -41.6503 25.2817 -21.0216 -6.36111e-015 1.59028e-015 -67.7743 -32.3349 -58.8079 -179.626 8.1741 87.3695 43.1349 59.2209 -58.3217 -8.57421 3.18055e-015 3.18055e-015 -54.8286 25.0222 44.6023 7.39519 3.80311 177.659 -11.6786 -9.93923e-017 5.2181e-016 10.9565 4.74351 -9.06003 90 9.93923e-017 -7.95139e-016 8.41747 -7.95754 175.904 -10.4557 0 -0 13.5694 -2.42372 0.24178 90 1.36664e-016 -1.59028e-015 
271.107 89.1889 -8.03593 -37.9249 -82.6051 -123.394 2.56848 -0.885189 -1.08768 5.12066 -1.8176 -2.13485 5.12066 -1.8176 -2.13486 -8.30907e-012 -9.0191e-006 -5.27751e-005 2.66955 -2.3766 6.86868 -178.014 -11.0594 -79.7519 7.77016 -42.014 24.8061 -20.8321 -3.18055e-015 6.36111e-015 -67.6048 -32.2779 -58.5086 -179.644 8.22157 87.5138 43.5097 59.5457 -58.5055 -8.56183 6.36111e-015 -1.59028e-015 -54.9661 24.8499 44.5876 7.39786 3.81247 177.648 -11.6427 -9.93923e-017 9.38015e-016 10.9708 4.74597 -9.00615 90 -7.95139e-016 -7.95139e-016 8.58956 -8.03657 175.935 -10.112 -3.18056e-015 -0 13.4704 -2.40368 0.171891 90 -9.16273e-017 -0 
271.091 89.19 -8.13315 -37.7717 -82.7101 -123.239 2.56264 -0.884152 -1.08931 5.10912 -1.81536 -2.13203 5.10912 -1.81536 -2.13204 -8.31146e-012 -9.0191e-006 -5.27751e-005 2.58067 -2.52221 6.91545 -178.026 -11.1122 -79.8623 7.63459 -42.3595 24.2843 -20.5948 -9.54166e-015 -1.59028e-015 -67.2476 -32.2348 -57.9623 -179.664 8.27434 87.6651 44.0289 59.9529 -58.7766 -8.51898 -6.36111e-015 7.95139e-016 -54.817 24.7498 44.3042 7.39728 3.75862 177.648 -11.6078 -7.45443e-017 1.36664e-016 11.0251 4.78861 -9.13877 90 -2.48481e-017 7.95139e-016 8.76483 -8.10401 175.957 -9.76248 1.59028e-015 -3.97569e-016 13.3692 -2.40334 0.160773 90 -4.96962e-017 -0 
